<svg xmlns="http://www.w3.org/2000/svg" viewBox="0 0 320 320">
  <rect width="320" height="320" rx="72" fill="#1a1714"/>
  <path fill="#faf7f2" d="M184.301849,120.552353 C189.921509,105.059219 199.721786,93.965576 214.323090,86.889595 C224.206177,82.100121 233.717117,76.542908 243.397461,71.334595 C245.010574,70.466690 246.597275,69.533417 248.267685,68.791245 C253.944885,66.268806 260.004822,68.116890 262.516876,73.065994 C265.201752,78.355576 263.310913,84.581505 257.787628,87.570602 C247.388199,93.198563 237.057709,98.997177 226.388947,104.074265 C209.470367,112.125549 201.386047,125.015709 202.049469,143.853119 C202.756653,163.933472 194.196976,179.231247 176.658508,189.244431 C170.850433,192.560394 168.172394,197.364761 168.300247,203.997070 C168.425461,210.492981 168.378632,216.994080 168.298386,223.491562 C168.212173,230.472855 164.114380,235.064545 157.976105,235.236618 C152.048080,235.402786 147.288773,230.767151 147.095779,223.980591 C146.854324,215.490936 146.731308,206.971191 147.164520,198.495468 C147.778885,186.475449 154.067902,177.826599 164.625092,172.388748 C176.443436,166.301285 181.886688,156.852676 181.052872,143.566299 C180.568863,135.853897 181.955200,128.312103 184.301849,120.552353 z"/>
  <path fill="#faf7f2" d="M163.507111,120.694656 C167.326324,129.723099 167.727692,138.848221 167.224762,148.043289 C166.923523,153.550369 161.816467,158.239624 156.675888,158.171417 C151.023865,158.096405 146.532455,153.503830 146.710815,147.307114 C147.303787,126.705139 138.216949,112.458298 119.559235,103.708374 C109.473915,98.978661 99.831871,93.291695 90.061996,87.905708 C83.754028,84.428230 81.800659,78.432144 84.888641,72.825455 C87.751122,67.628197 94.103691,66.074890 100.139999,69.325073 C112.016312,75.719742 123.830521,82.229881 135.662918,88.705971 C148.749802,95.868675 158.013107,106.388367 163.507111,120.694656 z"/>
</svg>
